<svg version="1.1" id="Layer_1" xmlns="http://www.w3.org/2000/svg" xmlns:xlink="http://www.w3.org/1999/xlink" x="0px" y="0px"
	 width="100%" viewBox="0 0 180 180" enable-background="new 0 0 180 180" xml:space="preserve">
<path fill="#FDFDFD" opacity="1.000000" stroke="none" 
	d="
M84.000000,181.000000 
	C56.000000,181.000000 28.500004,181.000000 1.000004,181.000000 
	C1.000002,121.000008 1.000002,61.000011 1.000001,1.000012 
	C60.999989,1.000008 120.999977,1.000008 180.999969,1.000004 
	C180.999985,60.999989 180.999985,120.999977 181.000000,180.999985 
	C148.833328,181.000000 116.666664,181.000000 84.000000,181.000000 
M63.209560,132.163528 
	C64.206863,130.123764 65.204163,128.084000 66.492424,125.571648 
	C65.673248,124.358757 64.854073,123.145866 63.753788,121.331146 
	C49.627972,107.918556 35.515198,94.492172 21.364908,81.105446 
	C18.656731,78.543404 15.676419,76.828087 12.061814,79.599411 
	C8.459191,82.361549 8.473200,86.875092 12.617953,90.826775 
	C24.662315,102.310066 36.878624,113.613014 49.147152,125.567673 
	C49.777500,125.999695 50.407848,126.431717 51.386604,127.442383 
	C53.941574,129.213257 56.496548,130.984116 59.457745,133.145432 
	C60.484055,132.880020 61.510365,132.614609 63.209560,132.163528 
M88.498764,129.048141 
	C100.975189,116.385056 113.475418,103.745293 125.915634,91.046730 
	C130.525192,86.341454 131.112701,82.968254 128.131241,79.869110 
	C125.148521,76.768661 121.929375,77.441071 117.088585,82.176422 
	C116.732246,82.524986 116.374794,82.872559 116.024979,83.227615 
	C103.665016,95.772522 91.300346,108.312798 78.949394,120.866570 
	C73.918961,125.979614 73.075012,129.325897 75.977127,132.404083 
	C78.792244,135.389999 83.008331,134.390167 88.498764,129.048141 
M57.629929,78.056297 
	C52.873146,78.398346 50.999420,81.096809 51.116817,85.694115 
	C51.252548,91.009651 51.022560,96.336983 51.241848,101.647202 
	C51.446007,106.591118 53.890617,108.923027 58.263435,108.909386 
	C62.620213,108.895805 65.077461,106.599518 65.321434,101.658699 
	C65.583458,96.352425 65.368973,91.024399 65.474785,85.708099 
	C65.571625,80.842949 63.431374,78.170639 57.629929,78.056297 
M17.335451,102.066017 
	C12.285439,101.989418 10.644190,105.237450 10.519948,109.494812 
	C10.345160,115.484283 10.423106,121.484558 10.532190,127.477684 
	C10.606615,131.566635 12.536592,134.101013 16.931063,134.129456 
	C21.329931,134.157944 23.311016,131.648117 23.384937,127.555275 
	C23.496180,121.395996 23.513586,115.229965 23.348616,109.072762 
	C23.257582,105.675041 21.913519,102.896820 17.335451,102.066017 
M90.861832,99.639893 
	C96.077553,95.535965 96.492393,92.291725 92.190857,87.670403 
	C89.814827,85.117737 87.280609,82.701866 84.702293,80.350891 
	C82.097336,77.975616 79.232628,76.971474 76.391922,79.974785 
	C73.642159,82.881958 72.951164,86.133293 75.887177,89.292168 
	C78.826813,92.454933 81.864166,95.563324 85.156273,98.343117 
	C86.381584,99.377747 88.449821,99.414093 90.861832,99.639893 
M109.836258,120.029221 
	C112.964928,123.822716 115.965576,127.732513 119.268227,131.367950 
	C121.395447,133.709503 124.176247,135.319611 127.057343,132.516190 
	C129.885590,129.764191 130.642563,126.435478 127.822845,123.184456 
	C125.430489,120.426170 122.920807,117.724228 120.174194,115.328506 
	C115.144753,110.941605 111.264961,112.507561 109.836258,120.029221 
M174.941940,45.283913 
	C174.124390,38.475933 169.282867,34.887531 163.930679,37.220570 
	C160.351990,38.780529 158.551025,41.652222 159.020264,45.535049 
	C159.517197,49.646992 162.104355,52.210609 166.181549,52.555939 
	C170.758408,52.943588 173.633484,50.469772 174.941940,45.283913 
M143.582199,61.680313 
	C145.324432,64.675972 148.074753,66.042877 151.076096,64.470535 
	C152.810883,63.561718 154.771805,61.047375 154.723740,59.308327 
	C154.668533,57.310299 152.955688,54.574612 151.168472,53.563400 
	C146.823898,51.105251 142.797607,55.060253 143.582199,61.680313 
M136.412949,69.333832 
	C134.839417,69.694893 133.091293,69.777306 131.798904,70.587059 
	C131.411926,70.829521 131.919678,73.450066 132.727112,74.329971 
	C133.309570,74.964714 135.935623,74.923752 136.138931,74.484566 
	C136.778473,73.103004 136.704559,71.391174 136.412949,69.333832 
z"/>
<path fill="#111111" opacity="1.000000" stroke="none" 
	d="
M88.249199,129.300568 
	C83.008331,134.390167 78.792244,135.389999 75.977127,132.404083 
	C73.075012,129.325897 73.918961,125.979614 78.949394,120.866570 
	C91.300346,108.312798 103.665016,95.772522 116.024979,83.227615 
	C116.374794,82.872559 116.732246,82.524986 117.088585,82.176422 
	C121.929375,77.441071 125.148521,76.768661 128.131241,79.869110 
	C131.112701,82.968254 130.525192,86.341454 125.915634,91.046730 
	C113.475418,103.745293 100.975189,116.385056 88.249199,129.300568 
z"/>
<path fill="#0D0D0D" opacity="1.000000" stroke="none" 
	d="
M59.051514,132.754990 
	C56.496548,130.984116 53.941574,129.213257 51.196487,126.836075 
	C50.346737,125.815422 49.687107,125.401070 49.027481,124.986717 
	C36.878624,113.613014 24.662315,102.310066 12.617953,90.826775 
	C8.473200,86.875092 8.459191,82.361549 12.061814,79.599411 
	C15.676419,76.828087 18.656731,78.543404 21.364908,81.105446 
	C35.515198,94.492172 49.627972,107.918556 63.884651,121.982330 
	C64.744156,123.770424 65.472801,124.907326 66.201462,126.044228 
	C65.204163,128.084000 64.206863,130.123764 62.514908,132.141724 
	C60.897343,132.331619 59.974426,132.543304 59.051514,132.754990 
z"/>
<path fill="#0F0F0F" opacity="1.000000" stroke="none" 
	d="
M58.033257,78.055695 
	C63.431374,78.170639 65.571625,80.842949 65.474785,85.708099 
	C65.368973,91.024399 65.583458,96.352425 65.321434,101.658699 
	C65.077461,106.599518 62.620213,108.895805 58.263435,108.909386 
	C53.890617,108.923027 51.446007,106.591118 51.241848,101.647202 
	C51.022560,96.336983 51.252548,91.009651 51.116817,85.694115 
	C50.999420,81.096809 52.873146,78.398346 58.033257,78.055695 
z"/>
<path fill="#0E0E0E" opacity="1.000000" stroke="none" 
	d="
M17.727629,102.097580 
	C21.913519,102.896820 23.257582,105.675041 23.348616,109.072762 
	C23.513586,115.229965 23.496180,121.395996 23.384937,127.555275 
	C23.311016,131.648117 21.329931,134.157944 16.931063,134.129456 
	C12.536592,134.101013 10.606615,131.566635 10.532190,127.477684 
	C10.423106,121.484558 10.345160,115.484283 10.519948,109.494812 
	C10.644190,105.237450 12.285439,101.989418 17.727629,102.097580 
z"/>
<path fill="#121212" opacity="1.000000" stroke="none" 
	d="
M90.497757,99.772781 
	C88.449821,99.414093 86.381584,99.377747 85.156273,98.343117 
	C81.864166,95.563324 78.826813,92.454933 75.887177,89.292168 
	C72.951164,86.133293 73.642159,82.881958 76.391922,79.974785 
	C79.232628,76.971474 82.097336,77.975616 84.702293,80.350891 
	C87.280609,82.701866 89.814827,85.117737 92.190857,87.670403 
	C96.492393,92.291725 96.077553,95.535965 90.497757,99.772781 
z"/>
<path fill="#121212" opacity="1.000000" stroke="none" 
	d="
M109.787811,119.680405 
	C111.264961,112.507561 115.144753,110.941605 120.174194,115.328506 
	C122.920807,117.724228 125.430489,120.426170 127.822845,123.184456 
	C130.642563,126.435478 129.885590,129.764191 127.057343,132.516190 
	C124.176247,135.319611 121.395447,133.709503 119.268227,131.367950 
	C115.965576,127.732513 112.964928,123.822716 109.787811,119.680405 
z"/>
<path fill="#131313" opacity="1.000000" stroke="none" 
	d="
M174.890045,45.672363 
	C173.633484,50.469772 170.758408,52.943588 166.181549,52.555939 
	C162.104355,52.210609 159.517197,49.646992 159.020264,45.535049 
	C158.551025,41.652222 160.351990,38.780529 163.930679,37.220570 
	C169.282867,34.887531 174.124390,38.475933 174.890045,45.672363 
z"/>
<path fill="#181818" opacity="1.000000" stroke="none" 
	d="
M143.421051,61.319614 
	C142.797607,55.060253 146.823898,51.105251 151.168472,53.563400 
	C152.955688,54.574612 154.668533,57.310299 154.723740,59.308327 
	C154.771805,61.047375 152.810883,63.561718 151.076096,64.470535 
	C148.074753,66.042877 145.324432,64.675972 143.421051,61.319614 
z"/>
<path fill="#2D2D2D" opacity="1.000000" stroke="none" 
	d="
M136.659912,69.570518 
	C136.704559,71.391174 136.778473,73.103004 136.138931,74.484566 
	C135.935623,74.923752 133.309570,74.964714 132.727112,74.329971 
	C131.919678,73.450066 131.411926,70.829521 131.798904,70.587059 
	C133.091293,69.777306 134.839417,69.694893 136.659912,69.570518 
z"/>
<path fill="#393939" opacity="1.000000" stroke="none" 
	d="
M66.346939,125.807938 
	C65.472801,124.907326 64.744156,123.770424 64.025208,122.283249 
	C64.854073,123.145866 65.673248,124.358757 66.346939,125.807938 
z"/>
<path fill="#393939" opacity="1.000000" stroke="none" 
	d="
M59.254631,132.950211 
	C59.974426,132.543304 60.897343,132.331619 62.178467,132.234558 
	C61.510365,132.614609 60.484055,132.880020 59.254631,132.950211 
z"/>
<path fill="#393939" opacity="1.000000" stroke="none" 
	d="
M49.087315,125.277191 
	C49.687107,125.401070 50.346737,125.815422 51.022282,126.546753 
	C50.407848,126.431717 49.777500,125.999695 49.087315,125.277191 
z"/>
</svg>